<svg width="23" height="20" viewBox="0 0 23 20" fill="none" xmlns="http://www.w3.org/2000/svg">
<g id="Group 656">
<path id="Fill 1" fill-rule="evenodd" clip-rule="evenodd" d="M17.5 4C16.9317 4 17.7801 4 17 4C16 1.99998 14 -1.52588e-05 10.5 -1.52588e-05C7 -1.52588e-05 4.56176 2.12213 4 5.5C1.78249 5.5 0 7.74204 0 10C0.5 12.5 1 13.5 3.52173 14H17.6495C20.324 14 22.5 11.7835 22.5 9.05943C22.5 6.33539 20.1744 4 17.5 4ZM21.0998 8.86377C21.0998 10.869 19.4815 12.5 17.4916 12.5H4.33634C2.77226 12.5 1.4998 11.2181 1.4998 9.64233C1.4998 8.06614 2.77226 6.7839 4.33634 6.7839C4.44072 6.7839 4.55466 6.79224 4.69489 6.80932L5.15662 6.86732L5.20284 6.40336C5.48808 3.57154 7.8362 1.43606 10.6648 1.43606C12.979 1.43606 15.0558 2.91493 15.8331 5.11635L15.9801 5.53185L16.3988 5.39798C16.7542 5.28517 17.1219 5.22797 17.4916 5.22797C19.4815 5.22797 21.0998 6.85898 21.0998 8.86377Z" fill="white"/>
<path id="Fill 2" fill-rule="evenodd" clip-rule="evenodd" d="M4.12326 16.0214C4.6957 17.0637 5.26813 18.1053 5.84117 19.1475C6.23949 19.8729 7.35217 19.2254 6.95325 18.4995C6.38081 17.4573 5.80837 16.415 5.23534 15.3728C4.83702 14.6474 3.72434 15.2949 4.12326 16.0214Z" fill="white"/>
<path id="Fill 3" fill-rule="evenodd" clip-rule="evenodd" d="M8.38546 16.0214C8.95786 17.0635 9.53026 18.1051 10.1027 19.1473C10.5016 19.8726 11.6142 19.2252 11.2153 18.4993C10.6429 17.4571 10.0705 16.4149 9.49746 15.3728C9.09917 14.6475 7.98597 15.2949 8.38546 16.0214Z" fill="white"/>
<path id="Fill 4" fill-rule="evenodd" clip-rule="evenodd" d="M12.8647 16.0213C13.4376 17.0633 14.0099 18.1048 14.5823 19.1468C14.9805 19.8721 16.0936 19.2247 15.6948 18.4989C15.1224 17.4568 14.5495 16.4148 13.9771 15.3727C13.5789 14.6475 12.4658 15.2949 12.8647 16.0213Z" fill="white"/>
<path id="Fill 5" fill-rule="evenodd" clip-rule="evenodd" d="M17.1934 16.0212C17.7657 17.0633 18.3387 18.1047 18.911 19.1468C19.3093 19.872 20.4223 19.2247 20.0235 18.4989C19.4505 17.4568 18.8782 16.4148 18.3059 15.3727C17.907 14.6475 16.7946 15.2948 17.1934 16.0212Z" fill="white"/>
</g>
</svg>
